<svg width="24" height="24" viewBox="0 0 24 24" fill="currentColor" xmlns="http://www.w3.org/2000/svg">
  <path d="M11.91 2c-1.06 0-2.07.09-2.96.25-2.62.46-3.1 1.43-3.1 3.22v2.36h6.2v.79H3.52c-1.8 0-3.38 1.08-3.87 3.14-.57 2.36-.6 3.83 0 6.29.44 1.84 1.5 3.15 3.3 3.15h2.13v-2.83c0-2.05 1.77-3.86 3.87-3.86h6.19c1.72 0 3.1-1.42 3.1-3.15V5.47c0-1.68-1.42-2.94-3.1-3.22-1.06-.18-2.17-.26-3.23-.25zM8.56 3.9c.64 0 1.17.54 1.17 1.2 0 .65-.53 1.18-1.17 1.18-.65 0-1.17-.53-1.17-1.19 0-.65.52-1.19 1.17-1.19z" opacity="0.95"/>
  <path d="M19.06 8.62v2.75c0 2.14-1.81 3.94-3.87 3.94H9c-1.69 0-3.1 1.45-3.1 3.15v5.9c0 1.68 1.46 2.67 3.1 3.15 1.97.58 3.85.68 6.19 0 1.57-.45 3.1-1.37 3.1-3.15v-2.36h-6.19v-.79h9.29c1.8 0 2.47-1.26 3.1-3.14.65-1.94.62-3.81 0-6.29-.44-1.79-1.3-3.14-3.1-3.14h-2.33zm-3.48 14.91c.65 0 1.17.53 1.17 1.19 0 .65-.52 1.19-1.17 1.19-.64 0-1.17-.54-1.17-1.19 0-.66.53-1.19 1.17-1.19z" opacity="0.75"/>
</svg>
